<svg width="128" height="139" viewBox="0 0 128 139" fill="none" xmlns="http://www.w3.org/2000/svg">
<path d="M105.5 48.3494C122.167 57.9719 122.167 82.0281 105.5 91.6506L50 123.694C33.3333 133.316 12.5 121.288 12.5 102.043L12.5 37.957C12.5 18.712 33.3333 6.68392 50 16.3064L105.5 48.3494Z" stroke="#212121" stroke-width="19" stroke-linejoin="round"/>
<path d="M13.5 72C18 72 28.2 72 33 72C39 72 37 79.5 46 79.5C55 79.5 52.5 64 63.5 64C74.5 64 68.5 78.6339 79.5 78.6339C90.5 78.6339 86.5 71.1284 97 71.1284C105.4 71.1284 109.667 71.1284 113 71.1284" stroke="#212121" stroke-width="13"/>
</svg>
