<svg width="46" height="46" viewBox="0 0 46 46" fill="none" xmlns="http://www.w3.org/2000/svg">
<path d="M7 44H15C15.5523 44 16 43.5523 16 43V30C16 27.2386 18.2386 25 21 25H25C27.7614 25 30 27.2386 30 30V43C30 43.5523 30.4477 44 31 44H39C41.7614 44 44 41.7614 44 39V16.1553C44 15.8119 43.8236 15.4927 43.5332 15.3096L25.667 4.04492C24.0377 3.01776 21.9623 3.01776 20.333 4.04492L2.4668 15.3096C2.17637 15.4927 2 15.8119 2 16.1553V39C2 41.7614 4.23858 44 7 44Z" stroke="white" stroke-width="4"/>
</svg>
