<svg width="56" height="56" viewBox="0 0 56 56" fill="none" xmlns="http://www.w3.org/2000/svg">
<g clip-path="url(#clip0_50_86)">
<path d="M50 7C53.3137 7 56 9.68629 56 13V42C56 45.3137 53.3137 48 50 48H6C2.68629 48 0 45.3137 0 42V13C0 9.68629 2.68629 7 6 7H50ZM29 17C27.8954 17 27 17.8954 27 19V28.208C26.5231 28.0731 26.0201 28 25.5 28H23.5C20.4624 28 18 30.4624 18 33.5C18 36.5376 20.4624 39 23.5 39H25.5C28.5376 39 31 36.5376 31 33.5C31 33.1796 30.9705 32.8659 30.918 32.5605C30.9699 32.3825 31 32.1948 31 32V21H35C36.1046 21 37 20.1046 37 19C37 17.8954 36.1046 17 35 17H29Z" fill="white"/>
</g>
<defs>
<clipPath id="clip0_50_86">
<rect width="56" height="41" fill="white" transform="translate(0 7)"/>
</clipPath>
</defs>
</svg>
